<svg xmlns="http://www.w3.org/2000/svg" width="67.611" height="67.611" viewBox="0 0 67.611 67.611"><defs><style>.a{fill:#6c6c6c;}</style></defs><g transform="translate(-24 -24)"><path class="a" d="M58.464,168.892a3.5,3.5,0,1,0,4.946,4.946L76.6,160.649a3.5,3.5,0,0,0,0-4.946L63.41,142.515a3.5,3.5,0,0,0-4.946,4.946l7.219,7.219H27.5a3.5,3.5,0,0,0,0,6.994H65.683Z" transform="translate(0 -100.371)"/><path class="a" d="M222.469,24h-32.64A5.829,5.829,0,0,0,184,29.829v4.663a3.5,3.5,0,1,0,6.994,0v-3.5H221.3V84.617H190.994v-3.5a3.5,3.5,0,0,0-6.994,0v4.663a5.829,5.829,0,0,0,5.829,5.829h32.64a5.829,5.829,0,0,0,5.829-5.829V29.829A5.829,5.829,0,0,0,222.469,24Z" transform="translate(-136.686)"/></g></svg>