<svg xmlns="http://www.w3.org/2000/svg" width="72.952" height="72.952" viewBox="0 0 72.952 72.952">
  <path id="facebook-icon" d="M63.123,0H9.832A9.831,9.831,0,0,0,0,9.83V63.122a9.83,9.83,0,0,0,9.83,9.83H36.115l.045-26.069H29.387a1.6,1.6,0,0,1-1.6-1.592l-.032-8.4a1.6,1.6,0,0,1,1.6-1.6h6.76v-8.12c0-9.423,5.755-14.553,14.16-14.553h6.9a1.6,1.6,0,0,1,1.6,1.6v7.086a1.6,1.6,0,0,1-1.6,1.6l-4.233,0c-4.571,0-5.456,2.172-5.456,5.36v7.029H57.53a1.6,1.6,0,0,1,1.587,1.786l-1,8.4a1.6,1.6,0,0,1-1.587,1.41h-9l-.045,26.069H63.124a9.83,9.83,0,0,0,9.83-9.83V9.83A9.831,9.831,0,0,0,63.123,0Z" transform="translate(-0.002)" fill="#1a1a1a"/>
</svg>
