<svg xmlns="http://www.w3.org/2000/svg" width="42.955" height="42.955" viewBox="0 0 42.955 42.955"><path d="M30.158,0H12.8A12.811,12.811,0,0,0,0,12.8V30.158a12.811,12.811,0,0,0,12.8,12.8H30.158a12.811,12.811,0,0,0,12.8-12.8V12.8A12.811,12.811,0,0,0,30.158,0Zm8.475,30.158a8.475,8.475,0,0,1-8.475,8.475H12.8a8.475,8.475,0,0,1-8.475-8.475V12.8A8.475,8.475,0,0,1,12.8,4.321H30.158A8.475,8.475,0,0,1,38.633,12.8V30.158Z" transform="translate(0 0)" fill="#fff"/><path d="M144.11,133a11.11,11.11,0,1,0,11.11,11.109A11.122,11.122,0,0,0,144.11,133Zm0,17.9a6.788,6.788,0,1,1,6.788-6.788A6.788,6.788,0,0,1,144.11,150.9Z" transform="translate(-122.632 -122.632)" fill="#fff"/><circle cx="2.662" cy="2.662" r="2.662" transform="translate(29.946 7.789)" fill="#fff"/></svg>