<svg id="instagram-icon" xmlns="http://www.w3.org/2000/svg" width="72.939" height="72.939" viewBox="0 0 72.939 72.939">
  <path id="Path_72585" data-name="Path 72585" d="M51.21,0H21.729A21.754,21.754,0,0,0,0,21.729V51.21A21.754,21.754,0,0,0,21.729,72.939H51.21A21.754,21.754,0,0,0,72.939,51.21V21.729A21.754,21.754,0,0,0,51.21,0ZM65.6,51.21A14.391,14.391,0,0,1,51.21,65.6H21.729A14.391,14.391,0,0,1,7.338,51.21V21.729A14.391,14.391,0,0,1,21.729,7.338H51.21A14.391,14.391,0,0,1,65.6,21.729V51.21Z" fill="#1a1a1a"/>
  <path id="Path_72586" data-name="Path 72586" d="M151.865,133a18.865,18.865,0,1,0,18.865,18.865A18.886,18.886,0,0,0,151.865,133Zm0,30.392a11.527,11.527,0,1,1,11.527-11.527A11.527,11.527,0,0,1,151.865,163.392Z" transform="translate(-115.395 -115.395)" fill="#1a1a1a"/>
  <ellipse id="Ellipse_20" data-name="Ellipse 20" cx="4.52" cy="4.52" rx="4.52" ry="4.52" transform="translate(50.851 13.226)" fill="#1a1a1a"/>
</svg>
