<svg xmlns="http://www.w3.org/2000/svg" width="73.081" height="73.081" viewBox="0 0 73.081 73.081">
  <path id="spotify-icon" d="M36.541,0A36.541,36.541,0,1,0,73.081,36.541,36.54,36.54,0,0,0,36.541,0Zm15.9,53.03a2.5,2.5,0,0,1-3.418.9c-6.566-3.837-14.152-4.454-19.361-4.3a48.028,48.028,0,0,0-10.043,1.326A2.5,2.5,0,0,1,18.3,46.139a52.029,52.029,0,0,1,11.075-1.5,48.781,48.781,0,0,1,10.67.772,36.013,36.013,0,0,1,11.5,4.2A2.5,2.5,0,0,1,52.443,53.03Zm4.645-9.648a2.959,2.959,0,0,1-4.049,1.062c-7.778-4.546-16.764-5.276-22.933-5.088a56.9,56.9,0,0,0-11.9,1.571,2.96,2.96,0,0,1-1.569-5.708,61.615,61.615,0,0,1,13.119-1.775,57.793,57.793,0,0,1,12.639.915,42.663,42.663,0,0,1,13.627,4.974A2.959,2.959,0,0,1,57.089,43.382Zm2.856-8.773a3.613,3.613,0,0,1-1.829-.5C39.625,23.306,15.638,29.731,15.4,29.8a3.63,3.63,0,0,1-1.928-7A75.57,75.57,0,0,1,29.561,20.62a70.9,70.9,0,0,1,15.5,1.122,52.325,52.325,0,0,1,16.716,6.1,3.631,3.631,0,0,1-1.835,6.766Z" fill="#1a1a1a"/>
</svg>
